<mxfile host="app.diagrams.net" modified="2023-04-23T10:27:04.189Z" agent="Mozilla/5.0 (Windows NT 10.0; Win64; x64) AppleWebKit/537.36 (KHTML, like Gecko) Chrome/112.0.0.0 Safari/537.36 Edg/112.0.1722.48" version="21.2.1" etag="_Gbkv3mrCNfjC_zfqu5L" type="github">
  <diagram name="第 1 页" id="pXvI-l0lHkANmIASP0bv">
    <mxGraphModel>
      <root>
        <mxCell id="0" />
        <mxCell id="1" parent="0" />
      </root>
    </mxGraphModel>
  </diagram>
</mxfile>
